<svg width="68" height="70" viewBox="0 0 68 70" fill="none" xmlns="http://www.w3.org/2000/svg">
<path d="M65.7241 52.5766C68.8686 58.1 66.9874 65.1219 61.5022 68.3375C55.9678 71.5805 48.853 69.7266 45.6046 64.1922L34.503 47.2555C34.3335 47.2664 34.1694 47.2828 33.9999 47.2828C33.8303 47.2828 33.6608 47.2664 33.4967 47.2609L22.3624 64.2359C21.4764 65.7508 20.2569 67.0524 18.7968 68.0313C13.4702 71.6024 6.25691 70.175 2.68581 64.8484C-0.885281 59.5164 0.542064 52.3031 5.86863 48.732C11.1952 45.1609 18.4085 46.5883 21.9796 51.9149L26.9069 43.1648C25.5233 40.775 25.4468 37.8383 26.7155 35.3828L12.2616 13.3438C12.2616 13.3383 12.2616 13.3383 12.2561 13.3328C9.57644 8.71719 11.146 2.80547 15.7616 0.125783H15.7725C16.2319 -0.136717 16.8171 0.0273459 17.0741 0.486721L33.9999 30.5648L50.9257 0.486721C50.9257 0.486721 50.9257 0.481252 50.9311 0.481252C51.1936 0.0218772 51.7788 -0.136717 52.2382 0.125783C56.8428 2.79453 58.4233 8.68438 55.7655 13.3L41.2842 35.3828C42.553 37.8438 42.4819 40.775 41.0928 43.1703L46.0202 51.9203C47.01 50.4383 48.328 49.2078 49.8702 48.3164C55.421 45.1117 62.5249 47.0203 65.7241 52.5766ZM64.4553 62.4914C66.7249 57.6406 64.6303 51.8656 59.7796 49.5961C54.9288 47.3266 49.1538 49.4211 46.8843 54.2719C46.7311 54.6 46.4139 54.8133 46.053 54.8242C45.6921 54.8406 45.3585 54.6547 45.1835 54.3375L39.835 44.8328C38.9163 45.768 37.7842 46.468 36.5374 46.8727L47.2342 63.1859C47.2342 63.1914 47.2397 63.1914 47.2397 63.1969C49.9139 67.8508 55.8585 69.4586 60.5178 66.7844C62.2405 65.7891 63.6132 64.2961 64.4553 62.4914ZM54.1358 12.2938C56.0499 8.925 55.1749 4.66485 52.0905 2.32422L35.8757 31.1391C37.5163 31.5273 38.9983 32.4133 40.1139 33.6766L54.1358 12.2938ZM40.2124 39.0961C40.2124 35.6563 37.4233 32.8672 33.9835 32.8672C30.5436 32.8672 27.7546 35.6563 27.7546 39.0961C27.7546 42.5359 30.5436 45.325 33.9835 45.325C37.4233 45.325 40.2124 42.5359 40.2124 39.0961ZM32.1241 31.1336L15.9093 2.32422C12.8139 4.68125 11.9499 8.96875 13.8913 12.343L27.8858 33.6766C29.0014 32.4133 30.4835 31.5219 32.1241 31.1336ZM20.7382 63.2352L31.4624 46.8727C30.2155 46.468 29.0835 45.768 28.1647 44.8328L22.8163 54.3375C22.6413 54.6492 22.3077 54.8406 21.9468 54.8242C21.5858 54.8133 21.2686 54.6 21.1155 54.2719C20.2678 52.4672 18.8897 50.9578 17.1561 49.968C12.5077 47.2883 6.56316 48.8906 3.88894 53.5445C1.21472 58.193 2.81706 64.1375 7.4655 66.8117C12.1194 69.4859 18.0585 67.8836 20.7382 63.2352Z" fill="white"/>
<path d="M61.1576 55.2125C61.9943 56.6672 62.224 58.3898 61.792 60.014C60.8896 63.3937 57.417 65.4008 54.0373 64.4984C50.6576 63.5961 48.6506 60.1234 49.5529 56.7437C50.4553 53.364 53.9279 51.357 57.3076 52.2593C58.9318 52.6914 60.3209 53.7523 61.1576 55.2125ZM59.9435 59.5164C60.5725 57.1593 59.1725 54.7367 56.81 54.1078C56.4326 54.0093 56.0443 53.9547 55.656 53.9547C53.6545 53.9601 51.91 55.3054 51.3904 57.2359C50.7561 59.5929 52.156 62.0211 54.5185 62.6554C56.881 63.2898 59.3092 61.8898 59.9381 59.5273C59.9435 59.5218 59.9435 59.5218 59.9435 59.5164Z" fill="white"/>
<path d="M34 40.9937C35.0445 40.9937 35.8976 40.146 35.8976 39.096C35.8976 38.0515 35.05 37.1984 34 37.1984C32.95 37.1984 32.1023 38.0515 32.1023 39.096C32.1023 40.146 32.95 40.9937 34 40.9937ZM34 35.2843C36.1054 35.2898 37.8062 36.9906 37.8117 39.096C37.8117 41.2015 36.1054 42.9077 34 42.9077C31.8945 42.9077 30.1882 41.2015 30.1882 39.096C30.1882 36.9906 31.8945 35.2843 34 35.2843Z" fill="white"/>
<path d="M18.4576 56.7438C18.8897 58.368 18.6655 60.1016 17.8233 61.5563C16.0678 64.5915 12.1905 65.6305 9.1553 63.8751C6.12014 62.1251 5.08108 58.2422 6.83655 55.2071C8.59201 52.1774 12.4694 51.1383 15.5045 52.8883C16.9647 53.7305 18.0256 55.1141 18.4576 56.7438ZM16.1662 60.5938C16.7514 59.5766 16.91 58.3735 16.6092 57.2415C15.9803 54.879 13.5522 53.479 11.1897 54.1079C10.0522 54.4087 9.0842 55.1524 8.49358 56.1751C7.27405 58.2915 8.00139 60.9985 10.1233 62.218C12.2397 63.4376 14.9467 62.7102 16.1662 60.5938Z" fill="white"/>
</svg>
