<?xml version="1.0" standalone="no"?>
<!DOCTYPE svg PUBLIC "-//W3C//DTD SVG 20010904//EN"
 "http://www.w3.org/TR/2001/REC-SVG-20010904/DTD/svg10.dtd">
<svg version="1.0" xmlns="http://www.w3.org/2000/svg"
 width="1024.000000pt" height="1024.000000pt" viewBox="0 0 1024.000000 1024.000000"
 preserveAspectRatio="xMidYMid meet">

<g transform="translate(0.000000,1024.000000) scale(0.100000,-0.100000)"
fill="#ffffff" stroke="none">
<path d="M3990 8333 c-244 -23 -372 -47 -565 -102 -344 -99 -550 -210 -679
-367 -98 -119 -146 -231 -146 -344 0 -115 33 -200 102 -267 44 -42 76 -53 157
-53 58 0 74 4 121 33 61 36 99 90 86 123 -8 18 -9 18 -18 -3 -6 -12 -29 -35
-51 -50 -52 -36 -130 -39 -174 -7 -61 46 -94 130 -79 207 11 58 67 138 126
178 74 52 129 70 230 76 108 7 171 -6 280 -59 161 -77 279 -232 329 -433 32
-127 68 -231 111 -316 96 -193 245 -372 410 -493 47 -35 92 -72 101 -82 29
-34 156 -257 188 -331 140 -321 221 -790 236 -1363 10 -376 37 -544 116 -718
51 -113 152 -235 254 -308 l30 -21 3 -780 3 -780 70 -28 c62 -24 79 -27 137
-21 37 4 69 9 72 12 3 3 8 308 12 677 10 969 8 916 38 935 14 8 64 55 111 103
68 68 95 105 127 171 93 191 127 342 142 628 18 345 69 616 153 820 46 112 70
146 114 160 114 37 359 216 460 337 143 170 212 366 213 598 0 261 -75 459
-274 723 -97 128 -317 341 -434 420 -51 35 -113 82 -139 104 -139 120 -478
315 -698 402 -189 74 -525 168 -700 195 -169 26 -438 38 -575 24z m555 -162
c285 -52 647 -171 885 -291 174 -88 389 -224 550 -349 47 -36 111 -85 143
-109 122 -90 325 -317 394 -440 163 -292 193 -635 74 -870 -65 -128 -214 -281
-373 -380 -40 -25 -125 -70 -188 -100 -298 -140 -393 -195 -568 -325 -138
-102 -137 -101 -316 -340 -111 -149 -185 -315 -205 -461 -6 -43 -11 -80 -11
-84 0 -4 -5 0 -10 8 -16 23 -1 165 27 255 110 348 354 709 607 900 170 129
367 285 420 334 71 67 147 171 202 278 61 119 67 148 29 155 -29 6 -32 2 -108
-113 -70 -106 -216 -256 -319 -326 l-76 -53 -32 41 -33 40 -4 357 c-5 389 -10
425 -62 481 -37 39 -121 64 -171 51 -46 -12 -119 -74 -136 -117 -11 -24 -14
-90 -14 -263 0 -144 -4 -230 -10 -230 -5 0 -35 16 -65 36 -73 46 -173 91 -258
114 -57 16 -67 17 -56 4 26 -32 184 -148 302 -223 147 -92 225 -149 290 -210
62 -57 131 -140 124 -147 -3 -3 -38 23 -79 58 -160 140 -244 191 -768 465
-267 140 -428 249 -545 367 -151 152 -221 278 -316 566 -88 266 -148 374 -266
479 -146 130 -413 209 -578 171 -22 -5 -41 -7 -43 -6 -2 2 31 25 72 51 171
106 554 216 857 245 165 15 498 5 634 -19z m928 -1483 c22 -23 22 -25 19 -321
l-3 -299 -62 64 -63 63 6 238 c5 236 5 239 29 258 30 25 47 24 74 -3z m-778
-515 c39 -22 126 -69 195 -103 169 -85 351 -194 425 -254 33 -27 83 -67 111
-89 l52 -41 -177 -175 c-217 -216 -299 -332 -372 -526 -18 -50 -36 -94 -41
-100 -4 -5 -8 29 -8 75 -1 346 -101 847 -222 1110 -16 36 -38 89 -49 119 -18
50 -18 53 -1 39 9 -8 49 -33 87 -55z m1161 -820 c-4 -21 -18 -76 -31 -123 -48
-170 -88 -430 -100 -650 -9 -157 -31 -312 -56 -392 -11 -38 -23 -68 -26 -68
-3 0 -3 9 0 20 4 16 0 20 -19 20 -14 0 -24 6 -24 14 0 9 -14 15 -40 18 -33 3
-40 0 -40 -14 0 -9 -8 -19 -18 -22 -9 -3 -27 -27 -39 -54 -13 -28 -51 -75 -93
-116 -41 -40 -70 -77 -71 -89 -1 -16 -2 -18 -6 -5 -3 14 -14 16 -63 13 -33 -2
-62 0 -65 6 -4 5 -11 9 -16 9 -18 0 -3 -49 24 -76 15 -15 25 -29 22 -32 -7 -7
-75 73 -103 122 -85 148 -66 487 43 731 70 160 136 258 254 378 64 65 143 140
176 167 72 58 265 180 284 180 10 0 12 -9 7 -37z m-222 -1278 c-4 -8 -11 -12
-16 -9 -6 4 -5 10 3 15 19 12 19 11 13 -6z m-53 -104 c-18 -27 -40 -55 -49
-63 -9 -7 -5 3 10 23 15 20 24 39 21 43 -4 3 -2 6 4 6 5 0 15 12 22 26 6 15
14 24 18 21 3 -4 -9 -29 -26 -56z m-293 -195 c11 3 29 1 39 -5 15 -9 12 -10
-20 -11 -34 0 -97 23 -97 36 0 2 13 -2 28 -10 16 -8 38 -12 50 -10z"/>
<path d="M5920 7908 c59 -73 81 -88 340 -238 316 -182 489 -310 667 -493 139
-143 200 -219 308 -387 190 -294 302 -586 365 -950 27 -153 38 -511 22 -665
-14 -129 -66 -391 -93 -475 -93 -281 -205 -500 -368 -718 -194 -258 -391 -442
-639 -599 -214 -135 -495 -249 -707 -288 -103 -19 -125 -35 -125 -95 0 -44 24
-70 66 -70 43 0 215 44 331 84 376 132 692 331 973 616 301 305 507 654 620
1054 74 261 100 456 100 756 0 331 -34 550 -131 845 -87 265 -258 579 -436
802 -168 211 -407 434 -600 559 -207 135 -549 289 -706 318 l-38 7 51 -63z"/>
<path d="M3445 7173 c-44 -47 -101 -115 -127 -152 -26 -36 -60 -84 -77 -107
-173 -240 -368 -717 -420 -1029 -48 -280 -52 -629 -12 -865 54 -320 189 -666
365 -939 231 -356 478 -605 822 -827 250 -162 683 -324 864 -324 45 0 54 15
44 77 -8 56 -24 66 -137 87 -204 40 -488 158 -697 291 -594 379 -991 982
-1106 1680 -26 157 -26 572 -1 735 40 257 128 524 251 768 88 172 160 283 285
441 50 63 91 121 91 130 -1 23 -34 94 -51 108 -11 9 -29 -5 -94 -74z"/>
</g>
</svg>
